 http://img26.imageshack.us/img26/7830/nezabravimatarazhodkaaw.jpg

The story of two North Carolina teens, Landon Carter and Jamie Sullivan, who are thrown together after Landon gets into trouble and is made to do community service.

IMDB - http://www.imdb.com/title/tt0281358/
Wikipedia - http://en.wikipedia.org/wiki/A_Walk_to_Remember
Official Website - http://awalktoremember.warnerbros.com/
Trailer - 

IMDB -- 101 min   -  25 January 2002 (USA) | PG
Genre: Drama | Romance 
IMDB rating: 7.1/10
Directed by: Adam Shankman
Writers: Nicholas Sparks (novel), Karen Janszen (screenplay)
Starring: Stars: Mandy Moore, Shane West and Peter Coyote

Info (antivirus and video codecs)
File size: 699.5 Mb
Antivirus (Kaspersky) check: ok (2011-09-02 04:07:16)

Video info:
Duration: 01:41:48.85, start: 0.000000, bitrate: 960 kb/s
Stream #0.0: Video: msmpeg4, yuv420p, 640x272, 23.98 tbr, 23.98 tbn, 23.98 tbc

Audio info:
Stream #0.1: Audio: mp3, 48000 Hz, 2 channels, s16, 130 kb/s

ScreenCaps